<svg width="16" height="16" viewBox="0 0 16 16" fill="none" xmlns="http://www.w3.org/2000/svg">
<g id="envelope">
<g id="Vector">
<path d="M7.99998 8.56871L14.1833 3.62702C13.9459 3.43875 13.6449 3.33474 13.3333 3.33334H2.66665C2.3551 3.33474 2.05408 3.43875 1.81665 3.62702L7.99998 8.56871Z" fill="#D4D4D4"/>
<path d="M8.83331 9.54125C8.59068 9.71446 8.29412 9.80906 7.98865 9.81067C7.70398 9.81121 7.42687 9.72515 7.19931 9.56551L1.33331 4.87894V11.4222C1.33331 11.7523 1.47379 12.0688 1.72384 12.3022C1.97389 12.5356 2.31302 12.6667 2.66665 12.6667H13.3333C13.6869 12.6667 14.0261 12.5356 14.2761 12.3022C14.5262 12.0688 14.6666 11.7523 14.6666 11.4222V4.87894L8.83331 9.54125Z" fill="#D4D4D4"/>
</g>
</g>
</svg>
