<svg width="16" height="16" viewBox="0 0 16 16" fill="none" xmlns="http://www.w3.org/2000/svg">
<g id="linkedin">
<g id="Vector">
<path fill-rule="evenodd" clip-rule="evenodd" d="M10.5323 6.01418C10.1013 5.99602 9.67267 6.08311 9.28845 6.2669C8.90423 6.45069 8.57761 6.72486 8.34064 7.06254V6.00618H6.22864V12.6667H8.35558V9.45631C8.35558 8.6091 8.56322 7.79119 9.78135 7.79119C11.0372 7.79119 11.2 8.75963 11.2 9.51226V12.6667H13.3334V9.10664C13.3334 7.35826 12.8356 6.01418 10.5323 6.01418Z" fill="#D4D4D4"/>
<path fill-rule="evenodd" clip-rule="evenodd" d="M3.73335 3.33333C3.52239 3.33333 3.31616 3.39193 3.14075 3.50171C2.96533 3.61149 2.82862 3.76752 2.74788 3.95008C2.66715 4.13263 2.64603 4.33351 2.68718 4.52731C2.72834 4.72111 2.82993 4.89913 2.97911 5.03886C3.12828 5.17858 3.31834 5.27373 3.52526 5.31228C3.73217 5.35083 3.94664 5.33104 4.14155 5.25543C4.33646 5.17981 4.50305 5.05176 4.62025 4.88746C4.73746 4.72316 4.80002 4.53 4.80002 4.3324C4.80002 4.06743 4.68764 3.81332 4.4876 3.62595C4.28756 3.43859 4.01625 3.33333 3.73335 3.33333Z" fill="#D4D4D4"/>
<path d="M4.80002 6.01418H2.66669V12.6667H4.80002V6.01418Z" fill="#D4D4D4"/>
</g>
</g>
</svg>
