<svg width="16" height="16" viewBox="0 0 16 16" fill="none" xmlns="http://www.w3.org/2000/svg">
<g id="phone">
<path id="Vector" d="M7.73125 9.85201C8.01019 10.13 8.38798 10.2861 8.78184 10.2861C9.17569 10.2861 9.55348 10.13 9.83242 9.85201L10.3577 9.3268C10.6366 9.04878 11.0144 8.89266 11.4083 8.89266C11.8021 8.89266 12.1799 9.04878 12.4589 9.3268L13.5095 10.3772C13.663 10.5058 13.7866 10.6665 13.8713 10.848C13.9561 11.0295 14 11.2273 14 11.4276C14 11.6279 13.9561 11.8258 13.8713 12.0073C13.7866 12.1888 13.663 12.3495 13.5095 12.4781C10.7584 15.2294 7.59168 13.9224 4.8324 11.1635C2.07312 8.40468 0.772655 5.24141 3.52443 2.49006C3.65311 2.3366 3.81386 2.21321 3.99536 2.12854C4.17687 2.04388 4.37472 2 4.57501 2C4.77529 2 4.97315 2.04388 5.15465 2.12854C5.33616 2.21321 5.49691 2.3366 5.62559 2.49006L6.67617 3.54048C6.95442 3.81927 7.11068 4.19704 7.11068 4.5909C7.11068 4.98476 6.95442 5.36253 6.67617 5.64132L6.15088 6.16653C5.87263 6.44532 5.71637 6.82309 5.71637 7.21695C5.71637 7.61081 5.87263 7.98858 6.15088 8.26737L7.73125 9.85201Z" fill="#D4D4D4"/>
</g>
</svg>
