<svg width="16" height="16" viewBox="0 0 16 16" fill="none" xmlns="http://www.w3.org/2000/svg">
<g id="pin">
<g id="Vector">
<path d="M8.00002 7.93265C8.78549 7.93265 9.42223 7.31852 9.42223 6.56094C9.42223 5.80336 8.78549 5.18922 8.00002 5.18922C7.21455 5.18922 6.5778 5.80336 6.5778 6.56094C6.5778 7.31852 7.21455 7.93265 8.00002 7.93265Z" fill="#D4D4D4"/>
<path d="M8.00002 1.33333C6.58599 1.33478 5.23032 1.8772 4.23045 2.84156C3.23059 3.80592 2.6682 5.11345 2.6667 6.47726C2.66454 7.57751 3.03205 8.64882 3.71416 9.5307C3.72705 9.55233 3.7413 9.57317 3.75683 9.59312L7.43113 14.3886C7.49725 14.4749 7.58342 14.5449 7.68271 14.5932C7.78201 14.6415 7.89166 14.6667 8.00286 14.6667C8.11406 14.6667 8.22371 14.6415 8.32301 14.5932C8.4223 14.5449 8.50847 14.4749 8.57459 14.3886L12.246 9.59312C12.2616 9.5734 12.2758 9.55279 12.2887 9.53139C12.9698 8.6489 13.3363 7.57741 13.3333 6.47726C13.3318 5.11345 12.7694 3.80592 11.7696 2.84156C10.7697 1.8772 9.41404 1.33478 8.00002 1.33333ZM8.00002 9.30437C7.43744 9.30437 6.8875 9.14347 6.41973 8.84202C5.95197 8.54057 5.58739 8.1121 5.3721 7.6108C5.15681 7.10951 5.10048 6.55789 5.21023 6.02572C5.31999 5.49355 5.59089 5.00471 5.9887 4.62104C6.3865 4.23736 6.89333 3.97608 7.44509 3.87022C7.99686 3.76436 8.56878 3.81869 9.08854 4.02634C9.60829 4.23398 10.0525 4.58561 10.3651 5.03677C10.6776 5.48792 10.8445 6.01834 10.8445 6.56094C10.8445 7.28854 10.5448 7.98634 10.0113 8.50084C9.4779 9.01533 8.75441 9.30437 8.00002 9.30437Z" fill="#D4D4D4"/>
</g>
</g>
</svg>
