<svg width="19" height="21" viewBox="0 0 19 21" fill="none" xmlns="http://www.w3.org/2000/svg">
<g id="instagram logo" clip-path="url(#clip0_2_3862)">
<path id="Vector" d="M9.89333 6.05521C7.33598 6.05521 5.27321 8.08575 5.27321 10.6031C5.27321 13.1205 7.33598 15.1511 9.89333 15.1511C12.4507 15.1511 14.5134 13.1205 14.5134 10.6031C14.5134 8.08575 12.4507 6.05521 9.89333 6.05521ZM9.89333 13.5599C8.2407 13.5599 6.88965 12.2339 6.88965 10.6031C6.88965 8.97238 8.23668 7.64639 9.89333 7.64639C11.55 7.64639 12.897 8.97238 12.897 10.6031C12.897 12.2339 11.546 13.5599 9.89333 13.5599ZM15.7801 5.86918C15.7801 6.45894 15.2975 6.92997 14.7024 6.92997C14.1033 6.92997 13.6248 6.45499 13.6248 5.86918C13.6248 5.28337 14.1073 4.80839 14.7024 4.80839C15.2975 4.80839 15.7801 5.28337 15.7801 5.86918ZM18.84 6.9458C18.7717 5.52482 18.442 4.26612 17.3844 3.22908C16.3309 2.19204 15.0523 1.86747 13.6087 1.79623C12.121 1.71311 7.66168 1.71311 6.17391 1.79623C4.7344 1.86352 3.45572 2.18809 2.3982 3.22512C1.34068 4.26216 1.01498 5.52086 0.942603 6.94184C0.858162 8.40636 0.858162 12.796 0.942603 14.2605C1.01096 15.6815 1.34068 16.9402 2.3982 17.9772C3.45572 19.0142 4.73038 19.3388 6.17391 19.4101C7.66168 19.4932 12.121 19.4932 13.6087 19.4101C15.0523 19.3428 16.3309 19.0182 17.3844 17.9772C18.4379 16.9402 18.7677 15.6815 18.84 14.2605C18.9245 12.796 18.9245 8.41032 18.84 6.9458ZM16.918 15.8319C16.6044 16.6077 15.9972 17.2054 15.2051 17.5181C14.0189 17.9812 11.2042 17.8743 9.89333 17.8743C8.58249 17.8743 5.76377 17.9772 4.5816 17.5181C3.79349 17.2093 3.18632 16.6116 2.86866 15.8319C2.3982 14.6642 2.50677 11.8935 2.50677 10.6031C2.50677 9.31278 2.40222 6.53811 2.86866 5.37441C3.18229 4.59861 3.78946 4.00092 4.5816 3.68823C5.76779 3.22512 8.58249 3.332 9.89333 3.332C11.2042 3.332 14.0229 3.22908 15.2051 3.68823C15.9932 3.99697 16.6003 4.59465 16.918 5.37441C17.3885 6.54207 17.2799 9.31278 17.2799 10.6031C17.2799 11.8935 17.3885 14.6682 16.918 15.8319Z" fill="black"/>
</g>
<defs>
<clipPath id="clip0_2_3862">
<rect width="18.0141" height="20.2658" fill="white" transform="translate(0.872192 0.476074)"/>
</clipPath>
</defs>
</svg>
