<svg width="19" height="17" viewBox="0 0 19 17" fill="none" xmlns="http://www.w3.org/2000/svg">
<g id="linkedin logo" clip-path="url(#clip0_2_3856)">
<path id="Vector" d="M4.53399 16.97V5.57554H0.671893L0.671893 16.97H4.53399ZM2.60344 4.01889C3.95023 4.01889 4.78853 3.14393 4.78853 2.05053C4.76344 0.932461 3.95028 0.0817871 2.629 0.0817871C1.30793 0.0817871 0.444031 0.932478 0.444031 2.05053C0.444031 3.14398 1.28213 4.01889 2.57823 4.01889H2.60332H2.60344ZM6.67166 16.97H10.5338V10.6068C10.5338 10.2662 10.5589 9.92602 10.6608 9.68258C10.94 9.00217 11.5755 8.29746 12.6424 8.29746C14.0399 8.29746 14.599 9.34237 14.599 10.8741V16.9699H18.4609V10.4364C18.4609 6.93651 16.5555 5.30803 14.0145 5.30803C11.931 5.30803 11.0163 6.45005 10.5081 7.22787H10.5338V5.57531H6.67174C6.72243 6.6445 6.67174 16.9697 6.67174 16.9697L6.67166 16.97Z" fill="black"/>
</g>
<defs>
<clipPath id="clip0_2_3856">
<rect width="18.0141" height="16.8882" fill="white" transform="translate(0.447937 0.0812988)"/>
</clipPath>
</defs>
</svg>
