<svg width="40" height="40" viewBox="0 0 40 40" fill="none" xmlns="http://www.w3.org/2000/svg">
<g id="vuesax/bold/task-square">
<g id="task-square">
<path id="Vector" d="M26.9833 3.33334H13.0167C6.95 3.33334 3.33334 6.95001 3.33334 13.0167V26.9833C3.33334 33.05 6.95 36.6667 13.0167 36.6667H26.9833C33.05 36.6667 36.6667 33.05 36.6667 26.9833V13.0167C36.6667 6.95001 33.05 3.33334 26.9833 3.33334ZM16.6167 24.8333L12.8667 28.5833C12.6167 28.8333 12.3 28.95 11.9833 28.95C11.6667 28.95 11.3333 28.8333 11.1 28.5833L9.85 27.3333C9.35 26.85 9.35 26.05 9.85 25.5667C10.3333 25.0833 11.1167 25.0833 11.6167 25.5667L11.9833 25.9333L14.85 23.0667C15.3333 22.5833 16.1167 22.5833 16.6167 23.0667C17.1 23.55 17.1 24.35 16.6167 24.8333ZM16.6167 13.1667L12.8667 16.9167C12.6167 17.1667 12.3 17.2833 11.9833 17.2833C11.6667 17.2833 11.3333 17.1667 11.1 16.9167L9.85 15.6667C9.35 15.1833 9.35 14.3833 9.85 13.9C10.3333 13.4167 11.1167 13.4167 11.6167 13.9L11.9833 14.2667L14.85 11.4C15.3333 10.9167 16.1167 10.9167 16.6167 11.4C17.1 11.8833 17.1 12.6833 16.6167 13.1667ZM29.2667 27.7H20.5167C19.8333 27.7 19.2667 27.1333 19.2667 26.45C19.2667 25.7667 19.8333 25.2 20.5167 25.2H29.2667C29.9667 25.2 30.5167 25.7667 30.5167 26.45C30.5167 27.1333 29.9667 27.7 29.2667 27.7ZM29.2667 16.0333H20.5167C19.8333 16.0333 19.2667 15.4667 19.2667 14.7833C19.2667 14.1 19.8333 13.5333 20.5167 13.5333H29.2667C29.9667 13.5333 30.5167 14.1 30.5167 14.7833C30.5167 15.4667 29.9667 16.0333 29.2667 16.0333Z" fill="#7757F4"/>
</g>
</g>
</svg>
